<?xml version="1.0" standalone="no"?>
<!DOCTYPE svg PUBLIC "-//W3C//DTD SVG 20010904//EN"
 "http://www.w3.org/TR/2001/REC-SVG-20010904/DTD/svg10.dtd">
<svg version="1.0" xmlns="http://www.w3.org/2000/svg"
 width="263.000000pt" height="263.000000pt" viewBox="0 0 263.000000 263.000000"
 preserveAspectRatio="xMidYMid meet">
<metadata>
Created by potrace 1.11, written by Peter Selinger 2001-2013
</metadata>
<g transform="translate(0.000000,263.000000) scale(0.100000,-0.100000)"
fill="#000000" stroke="none">
<path d="M1549 2243 c-123 -32 -207 -99 -265 -215 -55 -109 -77 -218 -77 -383
1 -151 15 -233 56 -326 61 -138 181 -203 357 -195 90 5 151 29 204 82 l38 39
-5 -215 c-4 -161 -9 -228 -22 -268 -35 -114 -78 -154 -170 -160 -67 -4 -113
12 -147 52 -24 28 -48 110 -48 163 l0 43 -134 0 -134 0 4 -52 c22 -281 197
-437 476 -424 131 6 217 43 292 126 72 80 129 241 143 404 9 107 9 750 0 846
-17 182 -97 347 -202 420 -97 67 -249 93 -366 63z m216 -238 c70 -53 93 -144
95 -381 1 -166 0 -176 -22 -207 -64 -91 -171 -122 -264 -76 -34 16 -48 31 -68
72 -30 65 -36 110 -36 267 -1 256 63 365 207 357 38 -3 61 -11 88 -32z"/>
<path d="M789 2242 c-8 -2 -27 -22 -44 -44 -35 -49 -121 -111 -185 -134 l-45
-16 0 -97 0 -96 98 -3 c53 -1 97 -6 97 -10 1 -4 1 -329 1 -722 l1 -716 129 0
c71 1 130 3 130 6 1 3 2 416 3 918 1 908 1 912 -19 913 -11 0 -50 1 -86 2 -36
1 -72 1 -80 -1z"/>
</g>
</svg>
